<svg width="100" height="100" viewBox="0 0 100 100" fill="none" xmlns="http://www.w3.org/2000/svg">
<rect width="100" height="100" fill="#E5E5E5"/>
<rect width="100" height="100" fill="#111111"/>
<path d="M59.9 59C59.9 61.6 59.2 63.7 57.8 65.3C56.4333 66.9 54.4 67.9333 51.7 68.4L60.7 81.45H55.6L47.45 68.6H41.95V81.45H38V50H48.95C52.4833 50 55.1833 50.85 57.05 52.55C58.95 54.25 59.9 56.4 59.9 59ZM48.65 65.85C51.0167 65.85 52.8 65.2833 54 64.15C55.2333 62.9833 55.85 61.4667 55.85 59.6C55.85 57.7 55.25 56.2 54.05 55.1C52.8833 53.9667 51.1833 53.4 48.95 53.4H41.95V65.85H48.65Z" fill="#ECECEC"/>
<path d="M35.9 26C35.9 28.6 35.2 30.7 33.8 32.3C32.4333 33.9 30.4 34.9333 27.7 35.4L36.7 48.45H31.6L23.45 35.6H17.95V48.45H14V17H24.95C28.4833 17 31.1833 17.85 33.05 19.55C34.95 21.25 35.9 23.4 35.9 26ZM24.65 32.85C27.0167 32.85 28.8 32.2833 30 31.15C31.2333 29.9833 31.85 28.4667 31.85 26.6C31.85 24.7 31.25 23.2 30.05 22.1C28.8833 20.9667 27.1833 20.4 24.95 20.4H17.95V32.85H24.65Z" fill="#ECECEC"/>
<path d="M31.35 57.2C30.7833 54.1333 28.5333 52.6 24.6 52.6C22.5 52.6 20.8833 53.0667 19.75 54C18.6167 54.9 18.05 56 18.05 57.3C18.05 58.5667 18.4 59.5333 19.1 60.2C19.8 60.8667 20.9333 61.45 22.5 61.95L29.05 64.2C31.2833 64.9667 33.05 66.0167 34.35 67.35C35.6833 68.6833 36.35 70.5667 36.35 73C36.35 75.4 35.3167 77.4333 33.25 79.1C31.1833 80.7333 28.4167 81.55 24.95 81.55C21.4833 81.55 18.6333 80.6833 16.4 78.95C14.2 77.1833 13.0667 74.7167 13 71.55H16.85C16.85 73.6167 17.5667 75.2 19 76.3C20.4667 77.4 22.3333 77.95 24.6 77.95C26.9 77.95 28.7167 77.45 30.05 76.45C31.3833 75.4167 32.05 74.2167 32.05 72.85C32.05 71.45 31.6333 70.35 30.8 69.55C30 68.75 28.8 68.0833 27.2 67.55L21.65 65.5C19.05 64.6333 17.0833 63.6 15.75 62.4C14.4167 61.2 13.75 59.45 13.75 57.15C13.75 54.8167 14.6833 52.8833 16.55 51.35C18.4167 49.7833 21.0333 49 24.4 49C27.7667 49 30.3333 49.75 32.1 51.25C33.9 52.7167 34.9333 54.7 35.2 57.2H31.35Z" fill="#ECECEC"/>
<path d="M74.4 50C77.7667 50 80.4667 50.85 82.5 52.55C84.5667 54.2167 85.9833 56.4 86.75 59.1L82.5 59.95C81.8333 57.9833 80.7833 56.4333 79.35 55.3C77.95 54.1333 76.3 53.55 74.4 53.55C71.7667 53.55 69.5833 54.65 67.85 56.85C66.1167 59.05 65.25 62.1167 65.25 66.05C65.25 69.95 66.0167 73.0833 67.55 75.45C69.1167 77.8167 71.4 79 74.4 79C76.9 79 78.8667 78.35 80.3 77.05C81.7667 75.7167 82.5 73.9667 82.5 71.8H86.75C86.75 75.1 85.6167 77.7167 83.35 79.65C81.1167 81.5833 78.0333 82.55 74.1 82.55C70.2 82.55 67.0333 81.05 64.6 78.05C62.2 75.05 61 71.0333 61 66C61 60.9667 62.25 57.05 64.75 54.25C67.25 51.4167 70.4667 50 74.4 50Z" fill="#ECECEC"/>
<path d="M38 17H57.35V20.4H41.95V30.95H56.45V34.3H41.95V45H57.35V48.45H38V17Z" fill="#ECECEC"/>
</svg>
